<svg width="32" height="26" viewBox="0 0 32 26" fill="none" xmlns="http://www.w3.org/2000/svg">
<path d="M27.0893 2.83438C25.0498 1.89854 22.8626 1.20905 20.5759 0.814157C20.5342 0.806535 20.4926 0.825581 20.4712 0.863675C20.1899 1.36396 19.8783 2.01663 19.6601 2.52962C17.2005 2.16139 14.7536 2.16139 12.3444 2.52962C12.1262 2.00522 11.8033 1.36396 11.5208 0.863675C11.4993 0.826852 11.4577 0.807806 11.4161 0.814157C9.13055 1.20779 6.94341 1.89728 4.90258 2.83438C4.88491 2.842 4.86977 2.85471 4.85972 2.87121C0.711189 9.06902 -0.425267 15.1145 0.13224 21.085C0.134763 21.1142 0.15116 21.1422 0.173864 21.1599C2.91095 23.17 5.56228 24.3903 8.16437 25.1991C8.20602 25.2118 8.25014 25.1966 8.27664 25.1623C8.89217 24.3217 9.44086 23.4354 9.9113 22.5033C9.93906 22.4488 9.91256 22.384 9.85582 22.3624C8.98551 22.0323 8.1568 21.6297 7.35964 21.1726C7.29659 21.1358 7.29154 21.0456 7.34954 21.0025C7.5173 20.8768 7.68509 20.746 7.84527 20.6139C7.87425 20.5898 7.91464 20.5847 7.94871 20.5999C13.1857 22.991 18.8554 22.991 24.0306 20.5999C24.0647 20.5834 24.1051 20.5885 24.1353 20.6126C24.2955 20.7447 24.4633 20.8768 24.6323 21.0025C24.6903 21.0456 24.6865 21.1358 24.6235 21.1726C23.8263 21.6386 22.9976 22.0323 22.126 22.3611C22.0693 22.3827 22.044 22.4488 22.0718 22.5033C22.5523 23.4341 23.101 24.3204 23.7052 25.161C23.7304 25.1966 23.7758 25.2118 23.8175 25.1991C26.4322 24.3903 29.0835 23.17 31.8206 21.1599C31.8446 21.1422 31.8597 21.1155 31.8622 21.0863C32.5294 14.1837 30.7447 8.1878 27.131 2.87247C27.1221 2.85471 27.107 2.842 27.0893 2.83438Z" fill="white"/>
<path d="M7.81744 14.2244C7.81744 16.0021 9.1166 17.4496 10.6933 17.4496C12.2951 17.4496 13.5691 16.0021 13.5691 14.2244C13.5943 12.4594 12.3078 10.9991 10.6933 10.9991C9.0914 10.9991 7.81744 12.4466 7.81744 14.2244Z" fill="#5865F2"/>
<path d="M18.4505 14.2244C18.4505 16.0021 19.7496 17.4496 21.3263 17.4496C22.9408 17.4496 24.2021 16.0021 24.2021 14.2244C24.2273 12.4594 22.9408 10.9991 21.3263 10.9991C19.7244 10.9991 18.4505 12.4466 18.4505 14.2244Z" fill="#5865F2"/>
</svg>
