<svg width="20" height="20" viewBox="0 0 20 20" fill="none" xmlns="http://www.w3.org/2000/svg">
<path d="M15.4976 14.2119L14.9396 14.7131C15.0819 14.8715 15.2847 14.9619 15.4976 14.9619C15.7105 14.9619 15.9133 14.8715 16.0556 14.7131L15.4976 14.2119ZM12.4425 16.6868L13.0236 16.2126L12.4425 16.6868ZM18.5527 16.6868L17.9716 16.2126L18.5527 16.6868ZM14.4854 18.6353L14.9783 18.07L14.4854 18.6353ZM15.2147 19.1503L15.4269 18.4309L15.2147 19.1503ZM16.5098 18.6353L16.017 18.07L16.5098 18.6353ZM15.7805 19.1503L15.9927 19.8696L15.7805 19.1503ZM0.25 19C0.25 19.4142 0.585786 19.75 1 19.75C1.41421 19.75 1.75 19.4142 1.75 19H0.25ZM8.8938 12.8133C9.30384 12.872 9.68379 12.5871 9.74244 12.1771C9.8011 11.767 9.51624 11.3871 9.1062 11.3284L8.8938 12.8133ZM16.0556 13.7108C15.1314 12.6818 13.5152 12.3504 12.2808 13.3549L13.2275 14.5184C13.7466 14.096 14.4643 14.1838 14.9396 14.7131L16.0556 13.7108ZM12.2808 13.3549C11.0915 14.3227 10.9034 15.9869 11.8614 17.161L13.0236 16.2126C12.6045 15.6991 12.6633 14.9776 13.2275 14.5184L12.2808 13.3549ZM19.1338 17.161C20.0848 15.9956 19.9293 14.3165 18.7066 13.3486L17.7756 14.5247C18.3365 14.9687 18.3978 15.6904 17.9716 16.2126L19.1338 17.161ZM18.7066 13.3486C17.4649 12.3657 15.8693 12.6757 14.9396 13.7108L16.0556 14.7131C16.5255 14.1899 17.2336 14.0957 17.7756 14.5247L18.7066 13.3486ZM11.8614 17.161C12.2987 17.697 13.2767 18.5765 13.9925 19.2006L14.9783 18.07C14.2329 17.4202 13.3636 16.6294 13.0236 16.2126L11.8614 17.161ZM17.0027 19.2006C17.7186 18.5765 18.6965 17.697 19.1338 17.161L17.9716 16.2126C17.6316 16.6294 16.7623 17.4202 16.017 18.07L17.0027 19.2006ZM13.9925 19.2006C14.2859 19.4564 14.5986 19.7505 15.0025 19.8696L15.4269 18.4309C15.4354 18.4334 15.419 18.4327 15.3467 18.3794C15.2641 18.3185 15.1605 18.2289 14.9783 18.07L13.9925 19.2006ZM16.017 18.07C15.8347 18.2289 15.7311 18.3185 15.6485 18.3794C15.5762 18.4327 15.5598 18.4334 15.5683 18.4309L15.9927 19.8696C16.3966 19.7505 16.7093 19.4564 17.0027 19.2006L16.017 18.07ZM15.0025 19.8696C15.3197 19.9632 15.6755 19.9632 15.9927 19.8696L15.5683 18.4309C15.5282 18.4427 15.467 18.4427 15.4269 18.4309L15.0025 19.8696ZM11.25 5C11.25 6.79493 9.79493 8.25 8 8.25V9.75C10.6234 9.75 12.75 7.62335 12.75 5H11.25ZM8 8.25C6.20507 8.25 4.75 6.79493 4.75 5H3.25C3.25 7.62335 5.37665 9.75 8 9.75V8.25ZM4.75 5C4.75 3.20507 6.20507 1.75 8 1.75V0.25C5.37665 0.25 3.25 2.37665 3.25 5H4.75ZM8 1.75C9.79493 1.75 11.25 3.20507 11.25 5H12.75C12.75 2.37665 10.6234 0.25 8 0.25V1.75ZM1.75 19C1.75 15.5482 4.54822 12.75 8 12.75V11.25C3.71979 11.25 0.25 14.7198 0.25 19H1.75ZM8 12.75C8.30388 12.75 8.60227 12.7716 8.8938 12.8133L9.1062 11.3284C8.74453 11.2767 8.37516 11.25 8 11.25V12.75Z" fill="white"/>
</svg>
