<svg width="24" height="24" viewBox="0 0 24 24" fill="none" xmlns="http://www.w3.org/2000/svg">
<path d="M4 14H6.67452C7.1637 14 7.40829 14 7.63846 14.0553C7.84254 14.1043 8.03763 14.1851 8.21657 14.2947C8.4184 14.4184 8.59136 14.5914 8.93726 14.9373L9.06274 15.0627C9.40865 15.4086 9.5816 15.5816 9.78343 15.7053C9.96237 15.8149 10.1575 15.8957 10.3615 15.9447C10.5917 16 10.8363 16 11.3255 16H12.6745C13.1637 16 13.4083 16 13.6385 15.9447C13.8425 15.8957 14.0376 15.8149 14.2166 15.7053C14.4184 15.5816 14.5914 15.4086 14.9373 15.0627L15.0627 14.9373C15.4086 14.5914 15.5816 14.4184 15.7834 14.2947C15.9624 14.1851 16.1575 14.1043 16.3615 14.0553C16.5917 14 16.8363 14 17.3255 14H20M8.8 20H15.2C16.8802 20 17.7202 20 18.362 19.673C18.9265 19.3854 19.3854 18.9265 19.673 18.362C20 17.7202 20 16.8802 20 15.2V8.8C20 7.11984 20 6.27976 19.673 5.63803C19.3854 5.07354 18.9265 4.6146 18.362 4.32698C17.7202 4 16.8802 4 15.2 4H8.8C7.11984 4 6.27976 4 5.63803 4.32698C5.07354 4.6146 4.6146 5.07354 4.32698 5.63803C4 6.27976 4 7.11984 4 8.8V15.2C4 16.8802 4 17.7202 4.32698 18.362C4.6146 18.9265 5.07354 19.3854 5.63803 19.673C6.27976 20 7.11984 20 8.8 20Z" stroke="#B9BBBE" stroke-width="2" stroke-linecap="round" stroke-linejoin="round"/>
</svg>
