<svg width="395" height="224" viewBox="0 0 395 224" fill="none" xmlns="http://www.w3.org/2000/svg">
<path d="M355 23H240.333C224.133 23 211 36.133 211 52.3333C211 72.5838 194.584 89 174.333 89H85.5C66.4462 89 51 104.446 51 123.5C51 142.554 66.4462 158 85.5 158H277.5V113.5H355C377.091 113.5 395 95.5914 395 73.5V63C395 40.9086 377.091 23 355 23Z" fill="#3E4148"/>
<path d="M112 49.5C112 34.8645 123.864 23 138.5 23H171.5C186.136 23 198 34.8645 198 49.5C198 64.1355 186.136 76 171.5 76H138.5C123.864 76 112 64.1355 112 49.5Z" fill="#3E4148"/>
<path d="M330 16.5V2L317.5 16L305 2L294 16L281.5 2V16.5V33.5" stroke="#202225"/>
<path d="M287 22L281.5 27.5L276 22L281.5 16.5L287 22Z" fill="#4F545C" stroke="#202225"/>
<path d="M335.5 22L330 16.5L324.5 22L330 27.5L335.5 22Z" fill="#4F545C" stroke="#202225"/>
<path d="M299.5 22L305 27.5L310.5 22L305 16.5L299.5 22Z" fill="#4F545C" stroke="#202225"/>
<path d="M252 112H264V124H252C248.686 124 246 121.314 246 118C246 114.686 248.686 112 252 112Z" fill="#4F545C" stroke="#202225"/>
<path d="M250.5 143.9V137C250.5 132.858 253.858 129.5 258 129.5H272V158H237.25C234.351 158 232 155.649 232 152.75C232 149.851 234.351 147.5 237.25 147.5H246.9C248.888 147.5 250.5 145.888 250.5 143.9Z" fill="#4F545C" stroke="#202225"/>
<path d="M257 131V142C257 150.837 264.163 158 273 158H330.5C341.546 158 350.5 149.046 350.5 138V119C350.5 107.954 341.546 99 330.5 99H289C271.327 99 257 113.327 257 131Z" fill="#72767D" stroke="#202225"/>
<path d="M339 33.5H272C262.059 33.5 254 41.5589 254 51.5V81C254 90.9411 262.059 99 272 99H339C347.837 99 355 91.8366 355 83V49.5C355 40.6634 347.837 33.5 339 33.5Z" fill="#72767D" stroke="#202225"/>
<path d="M262 51.5H280H284H294.5C298.918 51.5 302.5 55.0817 302.5 59.5V67.5C302.5 76.3366 295.337 83.5 286.5 83.5H270C261.163 83.5 254 76.3366 254 67.5V59.5C254 55.0817 257.582 51.5 262 51.5Z" fill="#72767D"/>
<path d="M255 51.5H273H277H287.5C291.918 51.5 295.5 55.0817 295.5 59.5V67.5C295.5 76.3366 288.337 83.5 279.5 83.5H263C254.163 83.5 247 76.3366 247 67.5V59.5C247 55.0817 250.582 51.5 255 51.5Z" fill="#B9BBBE"/>
<path d="M358 140C360 129 365 112.154 376.5 121C383 126 382 137 358 140Z" fill="#72767D" stroke="#202225"/>
<circle cx="315" cy="62.5" r="4" fill="#202225"/>
<path d="M324.5 56.5C322.833 56 319.2 54.3 318 51.5" stroke="#202225" stroke-linecap="round"/>
<path d="M311.5 105V99H331C342.046 99 351 107.954 351 119V138C351 149.046 342.046 158 331 158H287V155.5C287 151.082 290.582 147.5 295 147.5H304.6C306.754 147.5 308.5 145.754 308.5 143.6V140.8C308.5 133.731 314.231 128 321.3 128H322.25C323.493 128 324.5 126.993 324.5 125.75C324.5 124.507 323.493 123.5 322.25 123.5H291C288.791 123.5 287 121.709 287 119.5V117C287 114.791 288.791 113 291 113H303.5C307.918 113 311.5 109.418 311.5 105Z" fill="#4F545C" stroke="#202225"/>
<path d="M355 45.5H339V78.5H355C359.418 78.5 363 74.9183 363 70.5V53.5C363 49.0817 359.418 45.5 355 45.5Z" fill="#72767D"/>
<path d="M339 46H355C359.418 46 363 49.5817 363 54V71C363 75.4183 359.418 79 355 79H339" stroke="#202225"/>
<rect x="253" y="70.5" width="12" height="6" rx="3" fill="#4F545C"/>
<rect x="269" y="70.5" width="12" height="6" rx="3" fill="#4F545C"/>
<path d="M272.5 51.5H254.5C250.082 51.5 246.5 55.0817 246.5 59.5V67.5C246.5 76.3366 253.663 83.5 262.5 83.5H286C294.837 83.5 302 76.3366 302 67.5V59.5C302 55.0817 298.418 51.5 294 51.5H283.5" stroke="#202225" stroke-linecap="round"/>
<path d="M349 51.5H347C345.895 51.5 345 52.3954 345 53.5V70.5C345 71.6046 345.895 72.5 347 72.5H349C353.418 72.5 357 68.9183 357 64.5V59.5C357 55.0817 353.418 51.5 349 51.5Z" fill="#4F545C"/>
<path d="M156.5 133C156.5 131.067 158.067 129.5 160 129.5H166C167.933 129.5 169.5 131.067 169.5 133V140C169.5 140.828 168.828 141.5 168 141.5H158C157.172 141.5 156.5 140.828 156.5 140V133Z" fill="#72767D" stroke="#202225"/>
<path d="M178.5 128C178.5 126.067 180.067 124.5 182 124.5H192C193.933 124.5 195.5 126.067 195.5 128V138C195.5 139.933 193.933 141.5 192 141.5H182C180.067 141.5 178.5 139.933 178.5 138V128Z" fill="#72767D" stroke="#202225"/>
<path d="M196.5 114C196.5 112.067 198.067 110.5 200 110.5C201.933 110.5 203.5 112.067 203.5 114C203.5 115.933 201.933 117.5 200 117.5C198.067 117.5 196.5 115.933 196.5 114Z" stroke="#202225"/>
<path d="M12 155C12 153.067 13.567 151.5 15.5 151.5C17.433 151.5 19 153.067 19 155V156C19 156.828 18.3284 157.5 17.5 157.5H13.5C12.6716 157.5 12 156.828 12 156V155Z" stroke="#202225"/>
<path d="M0 156.5H8" stroke="#202225"/>
<rect x="65" y="158" width="315" height="1" fill="#202225"/>
<path d="M147.5 143C147.5 142.172 148.172 141.5 149 141.5H202C202.828 141.5 203.5 142.172 203.5 143V147C203.5 147.828 202.828 148.5 202 148.5H149C148.172 148.5 147.5 147.828 147.5 147V143Z" fill="#3E4148" stroke="#202225"/>
<path d="M151.5 148.5H158.5V157C158.5 157.828 157.828 158.5 157 158.5H153C152.172 158.5 151.5 157.828 151.5 157V148.5Z" fill="#4F545C" stroke="#202225"/>
<path d="M193.5 148.5H200.5V157C200.5 157.828 199.828 158.5 199 158.5H195C194.172 158.5 193.5 157.828 193.5 157V148.5Z" fill="#4F545C" stroke="#202225"/>
<path d="M97 144.1V150C97 154.418 100.582 158 105 158H121.5C123.709 158 125.5 156.209 125.5 154V152.5C125.5 150.291 123.709 148.5 121.5 148.5H116V147.9C116 141.604 110.896 136.5 104.6 136.5C100.403 136.5 97 139.903 97 144.1Z" fill="#4F545C" stroke="#202225"/>
<path d="M68 136.5C67.2 123.3 74.3334 115 78 112.5L118 124.5V142C118 150.837 110.837 158 102 158H72C69.7909 158 68 156.209 68 154V136.5Z" fill="#3E4148" stroke="#202225"/>
<path d="M64 144.1V150C64 154.418 67.5817 158 72 158H88.5C90.7091 158 92.5 156.209 92.5 154V152.5C92.5 150.291 90.7091 148.5 88.5 148.5H83V147.9C83 141.604 77.896 136.5 71.6 136.5C67.4026 136.5 64 139.903 64 144.1Z" fill="#4F545C" stroke="#202225"/>
<path d="M109.5 142.5L104 148" stroke="#202225"/>
<path d="M104 142.5L109.5 148" stroke="#202225"/>
<path d="M85 127.5C85 128.746 84.6766 129.961 84.0748 130.977C83.473 131.993 82.6226 132.758 81.6416 133.167C80.6607 133.577 79.5979 133.609 78.6009 133.26C77.6039 132.912 76.7221 132.199 76.078 131.222C75.4339 130.244 75.0594 129.05 75.0065 127.805C74.9536 126.561 75.225 125.327 75.783 124.276C76.3409 123.225 77.1578 122.409 78.1201 121.94C79.0824 121.472 80.1424 121.374 81.1529 121.662" stroke="#202225" stroke-linecap="round"/>
<path d="M127.5 81C126.7 85 123.5 84 122 83L108.5 74L117 60V68L126 64.5L126.5 73.5L134 70L129 79" stroke="#202225" stroke-linecap="round"/>
<path d="M123.921 81.2832L109.558 72.2033C101.19 66.9133 90.2115 68.541 83.7385 76.0312L78.6587 81.9092C68.9164 93.1825 71.6932 110.516 84.4696 118.182L94.1923 124.015C106.569 131.442 122.654 126.341 128.491 113.14L131.526 106.275C135.533 97.2111 132.298 86.579 123.921 81.2832Z" fill="#3E4148" stroke="#202225"/>
<circle cx="100" cy="94.5" r="5.5" stroke="#202225"/>
<path d="M135.221 109.875L118.526 99.0537C114.698 96.573 109.575 97.7892 107.27 101.725L105.448 104.838C102.145 110.481 103.968 117.73 109.547 121.14L112.89 123.183C120.413 127.78 130.239 125.425 134.86 117.916L136.452 115.328C137.591 113.477 137.044 111.056 135.221 109.875Z" fill="#3E4148" stroke="#202225"/>
<path d="M95.5 70.5L101.5 76.5L79.5 88.5L78.5 87.5C73.8056 82.8056 73.8056 75.1944 78.5 70.5C83.1944 65.8056 90.8056 65.8056 95.5 70.5Z" fill="#36393F"/>
<path d="M101.5 76.5L95.5 70.5C90.8056 65.8056 83.1944 65.8056 78.5 70.5V70.5C73.8056 75.1944 73.8056 82.8056 78.5 87.5L79.5 88.5" stroke="#202225"/>
<path d="M83.2271 85.9442C80.2982 83.0152 80.101 78.4637 82.7866 75.7781C85.4723 73.0924 90.0238 73.2897 92.9527 76.2186" stroke="#202225"/>
<path d="M37.9999 142C38.4999 143.5 40.4999 146 44.4999 144C45.3332 145.167 47.5999 147 49.9999 145V148.5L32.9999 158.5M32.9999 158.5C29.3332 158.5 22.9999 156.1 26.9999 146.5M32.9999 158.5C35.7998 149.7 30.1665 146.833 26.9999 146.5M26.9999 146.5L34.5 142.5" stroke="#202225" stroke-linecap="round"/>
<path d="M51.5 148H50C46.9624 148 44.5 150.462 44.5 153.5V154.8C44.5 155.739 45.2611 156.5 46.2 156.5H55.5C56.6046 156.5 57.5 155.605 57.5 154.5V154C57.5 153.172 56.8284 152.5 56 152.5C55.1716 152.5 54.5 151.828 54.5 151C54.5 149.343 53.1569 148 51.5 148Z" fill="#36393F" stroke="#202225" stroke-linecap="round"/>
<path d="M14.4466 220L11.6626 209.818H12.9154L15.0432 218.111H15.1427L17.3103 209.818H18.7023L20.8699 218.111H20.9694L23.0972 209.818H24.3501L21.566 220H20.2932L18.0461 211.886H17.9665L15.7194 220H14.4466ZM30.5397 216.878V212.364H31.713V220H30.5397V218.707H30.4601C30.2812 219.095 30.0028 219.425 29.6249 219.697C29.2471 219.965 28.7698 220.099 28.1931 220.099C27.7158 220.099 27.2916 219.995 26.9204 219.786C26.5492 219.574 26.2575 219.256 26.0454 218.832C25.8332 218.404 25.7272 217.866 25.7272 217.216V212.364H26.9005V217.136C26.9005 217.693 27.0563 218.137 27.3678 218.469C27.6827 218.8 28.0837 218.966 28.5709 218.966C28.8626 218.966 29.1592 218.891 29.4608 218.742C29.7658 218.593 30.021 218.364 30.2265 218.056C30.4353 217.748 30.5397 217.355 30.5397 216.878ZM33.8619 220V212.364H34.9955V213.557H35.0949C35.254 213.149 35.5109 212.833 35.8655 212.607C36.2201 212.379 36.646 212.264 37.1432 212.264C37.647 212.264 38.0663 212.379 38.401 212.607C38.7391 212.833 39.0026 213.149 39.1915 213.557H39.271C39.4666 213.162 39.7599 212.849 40.151 212.617C40.5421 212.382 41.0111 212.264 41.558 212.264C42.2407 212.264 42.7992 212.478 43.2334 212.906C43.6676 213.33 43.8847 213.991 43.8847 214.889V220H42.7114V214.889C42.7114 214.326 42.5573 213.923 42.249 213.681C41.9408 213.439 41.5779 213.318 41.1602 213.318C40.6233 213.318 40.2074 213.481 39.9124 213.805C39.6174 214.127 39.4699 214.535 39.4699 215.028V220H38.2767V214.77C38.2767 214.336 38.1359 213.986 37.8541 213.721C37.5724 213.452 37.2095 213.318 36.7654 213.318C36.4604 213.318 36.1754 213.399 35.9102 213.562C35.6484 213.724 35.4363 213.95 35.2739 214.238C35.1148 214.523 35.0352 214.853 35.0352 215.227V220H33.8619ZM46.0299 222.864V212.364H47.1634V213.577H47.3026C47.3888 213.444 47.5081 213.275 47.6606 213.07C47.8164 212.861 48.0384 212.675 48.3268 212.513C48.6185 212.347 49.0129 212.264 49.51 212.264C50.153 212.264 50.7198 212.425 51.2103 212.746C51.7008 213.068 52.0837 213.524 52.3588 214.114C52.6338 214.704 52.7714 215.4 52.7714 216.202C52.7714 217.01 52.6338 217.711 52.3588 218.305C52.0837 218.895 51.7025 219.352 51.2153 219.677C50.7281 219.998 50.1663 220.159 49.5299 220.159C49.0394 220.159 48.6466 220.078 48.3517 219.915C48.0567 219.75 47.8296 219.562 47.6705 219.354C47.5115 219.142 47.3888 218.966 47.3026 218.827H47.2032V222.864H46.0299ZM47.1833 216.182C47.1833 216.759 47.2678 217.267 47.4369 217.708C47.6059 218.146 47.8528 218.489 48.1776 218.737C48.5025 218.982 48.9002 219.105 49.3708 219.105C49.8614 219.105 50.2707 218.976 50.5988 218.717C50.9302 218.455 51.1788 218.104 51.3445 217.663C51.5136 217.219 51.5981 216.725 51.5981 216.182C51.5981 215.645 51.5152 215.161 51.3495 214.73C51.1871 214.296 50.9402 213.953 50.6088 213.701C50.2806 213.446 49.868 213.318 49.3708 213.318C48.8936 213.318 48.4925 213.439 48.1677 213.681C47.8429 213.92 47.5976 214.254 47.4319 214.685C47.2662 215.113 47.1833 215.612 47.1833 216.182ZM59.3737 216.878V212.364H60.547V220H59.3737V218.707H59.2941C59.1151 219.095 58.8367 219.425 58.4589 219.697C58.0811 219.965 57.6038 220.099 57.0271 220.099C56.5498 220.099 56.1256 219.995 55.7544 219.786C55.3831 219.574 55.0915 219.256 54.8794 218.832C54.6672 218.404 54.5612 217.866 54.5612 217.216V212.364H55.7345V217.136C55.7345 217.693 55.8902 218.137 56.2018 218.469C56.5167 218.8 56.9177 218.966 57.4049 218.966C57.6966 218.966 57.9932 218.891 58.2948 218.742C58.5998 218.593 58.855 218.364 59.0605 218.056C59.2693 217.748 59.3737 217.355 59.3737 216.878ZM68.105 214.074L67.051 214.372C66.9848 214.196 66.887 214.026 66.7577 213.86C66.6318 213.691 66.4594 213.552 66.2407 213.442C66.0219 213.333 65.7419 213.278 65.4005 213.278C64.9331 213.278 64.5437 213.386 64.2322 213.602C63.9239 213.814 63.7698 214.084 63.7698 214.412C63.7698 214.704 63.8759 214.934 64.088 215.103C64.3001 215.272 64.6315 215.413 65.0823 215.526L66.2158 215.804C66.8986 215.97 67.4073 216.223 67.7421 216.565C68.0769 216.903 68.2442 217.339 68.2442 217.872C68.2442 218.31 68.1183 218.701 67.8664 219.045C67.6178 219.39 67.2698 219.662 66.8224 219.861C66.3749 220.06 65.8546 220.159 65.2613 220.159C64.4824 220.159 63.8377 219.99 63.3273 219.652C62.8169 219.314 62.4938 218.82 62.3579 218.17L63.4715 217.892C63.5776 218.303 63.7781 218.611 64.0731 218.817C64.3714 219.022 64.7608 219.125 65.2414 219.125C65.7883 219.125 66.2224 219.009 66.5439 218.777C66.8688 218.542 67.0312 218.26 67.0312 217.932C67.0312 217.667 66.9384 217.445 66.7528 217.266C66.5671 217.083 66.2821 216.947 65.8976 216.858L64.6249 216.56C63.9256 216.394 63.4118 216.137 63.0837 215.789C62.7589 215.438 62.5965 214.999 62.5965 214.472C62.5965 214.041 62.7175 213.66 62.9594 213.328C63.2047 212.997 63.5378 212.737 63.9587 212.548C64.383 212.359 64.8635 212.264 65.4005 212.264C66.1562 212.264 66.7494 212.43 67.1803 212.761C67.6145 213.093 67.9227 213.53 68.105 214.074ZM73.9479 220V212.364H75.1212V220H73.9479ZM74.5445 211.091C74.3158 211.091 74.1186 211.013 73.9529 210.857C73.7905 210.701 73.7093 210.514 73.7093 210.295C73.7093 210.077 73.7905 209.889 73.9529 209.734C74.1186 209.578 74.3158 209.5 74.5445 209.5C74.7732 209.5 74.9687 209.578 75.1311 209.734C75.2968 209.889 75.3797 210.077 75.3797 210.295C75.3797 210.514 75.2968 210.701 75.1311 210.857C74.9687 211.013 74.7732 211.091 74.5445 211.091ZM82.6792 214.074L81.6253 214.372C81.559 214.196 81.4612 214.026 81.3319 213.86C81.206 213.691 81.0336 213.552 80.8149 213.442C80.5961 213.333 80.3161 213.278 79.9747 213.278C79.5074 213.278 79.1179 213.386 78.8064 213.602C78.4981 213.814 78.344 214.084 78.344 214.412C78.344 214.704 78.4501 214.934 78.6622 215.103C78.8743 215.272 79.2058 215.413 79.6565 215.526L80.79 215.804C81.4728 215.97 81.9816 216.223 82.3163 216.565C82.6511 216.903 82.8184 217.339 82.8184 217.872C82.8184 218.31 82.6925 218.701 82.4406 219.045C82.192 219.39 81.844 219.662 81.3966 219.861C80.9491 220.06 80.4288 220.159 79.8355 220.159C79.0566 220.159 78.412 219.99 77.9015 219.652C77.3911 219.314 77.068 218.82 76.9321 218.17L78.0457 217.892C78.1518 218.303 78.3523 218.611 78.6473 218.817C78.9456 219.022 79.335 219.125 79.8156 219.125C80.3625 219.125 80.7967 219.009 81.1182 218.777C81.443 218.542 81.6054 218.26 81.6054 217.932C81.6054 217.667 81.5126 217.445 81.327 217.266C81.1414 217.083 80.8563 216.947 80.4719 216.858L79.1991 216.56C78.4998 216.394 77.9861 216.137 77.6579 215.789C77.3331 215.438 77.1707 214.999 77.1707 214.472C77.1707 214.041 77.2917 213.66 77.5336 213.328C77.7789 212.997 78.112 212.737 78.5329 212.548C78.9572 212.359 79.4378 212.264 79.9747 212.264C80.7304 212.264 81.3237 212.43 81.7545 212.761C82.1887 213.093 82.497 213.53 82.6792 214.074ZM90.2522 220L87.9255 212.364H89.1585L90.809 218.21H90.8886L92.5193 212.364H93.7721L95.3829 218.19H95.4624L97.113 212.364H98.346L96.0193 220H94.8659L93.1954 214.134H93.0761L91.4056 220H90.2522ZM102.144 220.179C101.66 220.179 101.221 220.088 100.827 219.906C100.432 219.72 100.119 219.453 99.8872 219.105C99.6552 218.754 99.5392 218.33 99.5392 217.832C99.5392 217.395 99.6253 217.04 99.7977 216.768C99.97 216.493 100.2 216.278 100.489 216.122C100.777 215.966 101.095 215.85 101.443 215.774C101.795 215.695 102.148 215.632 102.502 215.585C102.966 215.526 103.342 215.481 103.631 215.451C103.922 215.418 104.135 215.363 104.267 215.287C104.403 215.211 104.471 215.078 104.471 214.889V214.849C104.471 214.359 104.337 213.978 104.068 213.706C103.803 213.434 103.4 213.298 102.86 213.298C102.3 213.298 101.861 213.421 101.543 213.666C101.225 213.911 101.001 214.173 100.872 214.452L99.7579 214.054C99.9568 213.59 100.222 213.229 100.553 212.97C100.888 212.708 101.253 212.526 101.647 212.423C102.045 212.317 102.436 212.264 102.82 212.264C103.066 212.264 103.347 212.294 103.666 212.354C103.987 212.41 104.297 212.528 104.595 212.707C104.897 212.886 105.147 213.156 105.346 213.517C105.545 213.878 105.644 214.362 105.644 214.969V220H104.471V218.966H104.411C104.332 219.132 104.199 219.309 104.014 219.498C103.828 219.687 103.581 219.848 103.273 219.98C102.965 220.113 102.588 220.179 102.144 220.179ZM102.323 219.125C102.787 219.125 103.178 219.034 103.497 218.852C103.818 218.669 104.06 218.434 104.222 218.146C104.388 217.857 104.471 217.554 104.471 217.236V216.162C104.421 216.222 104.312 216.276 104.143 216.326C103.977 216.372 103.785 216.414 103.566 216.45C103.351 216.483 103.14 216.513 102.935 216.54C102.733 216.563 102.569 216.583 102.443 216.599C102.138 216.639 101.853 216.704 101.587 216.793C101.326 216.879 101.113 217.01 100.951 217.186C100.792 217.358 100.712 217.594 100.712 217.892C100.712 218.3 100.863 218.608 101.165 218.817C101.47 219.022 101.856 219.125 102.323 219.125ZM107.786 220V212.364H108.959V220H107.786ZM108.382 211.091C108.154 211.091 107.956 211.013 107.791 210.857C107.628 210.701 107.547 210.514 107.547 210.295C107.547 210.077 107.628 209.889 107.791 209.734C107.956 209.578 108.154 209.5 108.382 209.5C108.611 209.5 108.807 209.578 108.969 209.734C109.135 209.889 109.218 210.077 109.218 210.295C109.218 210.514 109.135 210.701 108.969 210.857C108.807 211.013 108.611 211.091 108.382 211.091ZM114.429 212.364V213.358H110.472V212.364H114.429ZM111.625 210.534H112.798V217.812C112.798 218.144 112.846 218.393 112.943 218.558C113.042 218.721 113.168 218.83 113.32 218.886C113.476 218.939 113.64 218.966 113.813 218.966C113.942 218.966 114.048 218.959 114.131 218.946C114.214 218.929 114.28 218.916 114.33 218.906L114.568 219.96C114.489 219.99 114.378 220.02 114.235 220.05C114.093 220.083 113.912 220.099 113.693 220.099C113.362 220.099 113.037 220.028 112.719 219.886C112.404 219.743 112.142 219.526 111.933 219.234C111.728 218.943 111.625 218.575 111.625 218.131V210.534ZM116.194 220V212.364H117.367V220H116.194ZM116.791 211.091C116.562 211.091 116.365 211.013 116.199 210.857C116.037 210.701 115.955 210.514 115.955 210.295C115.955 210.077 116.037 209.889 116.199 209.734C116.365 209.578 116.562 209.5 116.791 209.5C117.019 209.5 117.215 209.578 117.377 209.734C117.543 209.889 117.626 210.077 117.626 210.295C117.626 210.514 117.543 210.701 117.377 210.857C117.215 211.013 117.019 211.091 116.791 211.091ZM120.69 215.406V220H119.516V212.364H120.65V213.557H120.749C120.928 213.169 121.2 212.857 121.565 212.622C121.929 212.384 122.4 212.264 122.976 212.264C123.494 212.264 123.946 212.37 124.334 212.582C124.722 212.791 125.023 213.109 125.239 213.537C125.454 213.961 125.562 214.498 125.562 215.148V220H124.388V215.227C124.388 214.627 124.233 214.16 123.921 213.825C123.61 213.487 123.182 213.318 122.638 213.318C122.264 213.318 121.929 213.399 121.634 213.562C121.342 213.724 121.112 213.961 120.943 214.273C120.774 214.584 120.69 214.962 120.69 215.406ZM130.788 223.023C130.221 223.023 129.734 222.95 129.326 222.804C128.919 222.661 128.579 222.473 128.307 222.237C128.039 222.005 127.825 221.757 127.666 221.491L128.601 220.835C128.707 220.974 128.841 221.134 129.003 221.312C129.166 221.495 129.388 221.652 129.669 221.785C129.955 221.921 130.327 221.989 130.788 221.989C131.405 221.989 131.913 221.839 132.314 221.541C132.715 221.243 132.916 220.776 132.916 220.139V218.588H132.816C132.73 218.727 132.608 218.9 132.449 219.105C132.293 219.307 132.067 219.488 131.772 219.647C131.481 219.803 131.086 219.881 130.589 219.881C129.973 219.881 129.419 219.735 128.929 219.443C128.441 219.152 128.055 218.727 127.77 218.17C127.489 217.614 127.348 216.937 127.348 216.142C127.348 215.36 127.485 214.679 127.76 214.099C128.035 213.515 128.418 213.065 128.909 212.746C129.399 212.425 129.966 212.264 130.609 212.264C131.106 212.264 131.501 212.347 131.792 212.513C132.087 212.675 132.313 212.861 132.468 213.07C132.628 213.275 132.75 213.444 132.836 213.577H132.956V212.364H134.089V220.219C134.089 220.875 133.94 221.409 133.642 221.82C133.347 222.234 132.949 222.537 132.449 222.729C131.951 222.925 131.398 223.023 130.788 223.023ZM130.748 218.827C131.219 218.827 131.617 218.719 131.941 218.504C132.266 218.288 132.513 217.978 132.682 217.574C132.851 217.17 132.936 216.686 132.936 216.122C132.936 215.572 132.853 215.086 132.687 214.665C132.522 214.245 132.276 213.915 131.951 213.676C131.627 213.437 131.226 213.318 130.748 213.318C130.251 213.318 129.837 213.444 129.505 213.696C129.177 213.948 128.93 214.286 128.765 214.71C128.602 215.134 128.521 215.605 128.521 216.122C128.521 216.652 128.604 217.121 128.77 217.529C128.939 217.933 129.187 218.252 129.515 218.484C129.847 218.712 130.258 218.827 130.748 218.827ZM143.277 220.159C142.587 220.159 141.982 219.995 141.462 219.667C140.945 219.339 140.541 218.88 140.249 218.29C139.961 217.7 139.816 217.01 139.816 216.222C139.816 215.426 139.961 214.732 140.249 214.138C140.541 213.545 140.945 213.085 141.462 212.756C141.982 212.428 142.587 212.264 143.277 212.264C143.966 212.264 144.569 212.428 145.086 212.756C145.607 213.085 146.011 213.545 146.299 214.138C146.591 214.732 146.737 215.426 146.737 216.222C146.737 217.01 146.591 217.7 146.299 218.29C146.011 218.88 145.607 219.339 145.086 219.667C144.569 219.995 143.966 220.159 143.277 220.159ZM143.277 219.105C143.8 219.105 144.231 218.971 144.569 218.702C144.907 218.434 145.158 218.081 145.32 217.643C145.482 217.206 145.564 216.732 145.564 216.222C145.564 215.711 145.482 215.236 145.32 214.795C145.158 214.354 144.907 213.998 144.569 213.726C144.231 213.454 143.8 213.318 143.277 213.318C142.753 213.318 142.322 213.454 141.984 213.726C141.646 213.998 141.396 214.354 141.233 214.795C141.071 215.236 140.99 215.711 140.99 216.222C140.99 216.732 141.071 217.206 141.233 217.643C141.396 218.081 141.646 218.434 141.984 218.702C142.322 218.971 142.753 219.105 143.277 219.105ZM149.701 215.406V220H148.528V212.364H149.661V213.557H149.761C149.94 213.169 150.212 212.857 150.576 212.622C150.941 212.384 151.411 212.264 151.988 212.264C152.505 212.264 152.958 212.37 153.345 212.582C153.733 212.791 154.035 213.109 154.25 213.537C154.466 213.961 154.573 214.498 154.573 215.148V220H153.4V215.227C153.4 214.627 153.244 214.16 152.933 213.825C152.621 213.487 152.194 213.318 151.65 213.318C151.276 213.318 150.941 213.399 150.646 213.562C150.354 213.724 150.124 213.961 149.955 214.273C149.786 214.584 149.701 214.962 149.701 215.406ZM164.055 212.364V213.358H159.939V212.364H164.055ZM161.172 220V211.31C161.172 210.872 161.275 210.508 161.48 210.216C161.686 209.924 161.953 209.705 162.281 209.56C162.609 209.414 162.955 209.341 163.32 209.341C163.608 209.341 163.843 209.364 164.026 209.411C164.208 209.457 164.344 209.5 164.433 209.54L164.095 210.554C164.036 210.534 163.953 210.509 163.847 210.479C163.744 210.45 163.608 210.435 163.439 210.435C163.051 210.435 162.771 210.532 162.599 210.728C162.43 210.924 162.345 211.21 162.345 211.588V220H161.172ZM165.7 220V212.364H166.833V213.517H166.913C167.052 213.139 167.304 212.833 167.669 212.597C168.033 212.362 168.444 212.244 168.902 212.244C168.988 212.244 169.095 212.246 169.225 212.249C169.354 212.253 169.452 212.258 169.518 212.264V213.457C169.478 213.447 169.387 213.433 169.245 213.413C169.105 213.389 168.958 213.378 168.802 213.378C168.431 213.378 168.099 213.456 167.808 213.612C167.519 213.764 167.291 213.976 167.122 214.248C166.956 214.516 166.873 214.823 166.873 215.168V220H165.7ZM170.909 220V212.364H172.082V220H170.909ZM171.505 211.091C171.277 211.091 171.08 211.013 170.914 210.857C170.751 210.701 170.67 210.514 170.67 210.295C170.67 210.077 170.751 209.889 170.914 209.734C171.08 209.578 171.277 209.5 171.505 209.5C171.734 209.5 171.93 209.578 172.092 209.734C172.258 209.889 172.341 210.077 172.341 210.295C172.341 210.514 172.258 210.701 172.092 210.857C171.93 211.013 171.734 211.091 171.505 211.091ZM177.433 220.159C176.697 220.159 176.062 219.997 175.529 219.672C174.998 219.344 174.589 218.886 174.301 218.3C174.016 217.71 173.873 217.024 173.873 216.241C173.873 215.459 174.016 214.77 174.301 214.173C174.589 213.573 174.99 213.106 175.504 212.771C176.021 212.433 176.624 212.264 177.313 212.264C177.711 212.264 178.104 212.33 178.492 212.463C178.88 212.596 179.233 212.811 179.551 213.109C179.869 213.404 180.122 213.795 180.311 214.283C180.5 214.77 180.595 215.37 180.595 216.082V216.58H174.708V215.565H179.402C179.402 215.134 179.315 214.75 179.143 214.412C178.974 214.074 178.732 213.807 178.417 213.612C178.106 213.416 177.738 213.318 177.313 213.318C176.846 213.318 176.442 213.434 176.1 213.666C175.762 213.895 175.502 214.193 175.32 214.561C175.138 214.929 175.046 215.323 175.046 215.744V216.42C175.046 216.997 175.146 217.486 175.345 217.887C175.547 218.285 175.827 218.588 176.185 218.797C176.543 219.002 176.959 219.105 177.433 219.105C177.741 219.105 178.019 219.062 178.268 218.976C178.52 218.886 178.737 218.754 178.919 218.578C179.102 218.399 179.242 218.177 179.342 217.912L180.475 218.23C180.356 218.615 180.156 218.953 179.874 219.244C179.592 219.533 179.244 219.758 178.83 219.92C178.416 220.08 177.95 220.159 177.433 220.159ZM183.553 215.406V220H182.38V212.364H183.513V213.557H183.612C183.791 213.169 184.063 212.857 184.428 212.622C184.792 212.384 185.263 212.264 185.84 212.264C186.357 212.264 186.809 212.37 187.197 212.582C187.585 212.791 187.886 213.109 188.102 213.537C188.317 213.961 188.425 214.498 188.425 215.148V220H187.252V215.227C187.252 214.627 187.096 214.16 186.784 213.825C186.473 213.487 186.045 213.318 185.502 213.318C185.127 213.318 184.792 213.399 184.497 213.562C184.206 213.724 183.975 213.961 183.806 214.273C183.637 214.584 183.553 214.962 183.553 215.406ZM193.453 220.159C192.816 220.159 192.254 219.998 191.767 219.677C191.28 219.352 190.899 218.895 190.624 218.305C190.349 217.711 190.211 217.01 190.211 216.202C190.211 215.4 190.349 214.704 190.624 214.114C190.899 213.524 191.282 213.068 191.772 212.746C192.263 212.425 192.829 212.264 193.472 212.264C193.97 212.264 194.362 212.347 194.651 212.513C194.942 212.675 195.164 212.861 195.317 213.07C195.473 213.275 195.594 213.444 195.68 213.577H195.779V209.818H196.953V220H195.819V218.827H195.68C195.594 218.966 195.471 219.142 195.312 219.354C195.153 219.562 194.926 219.75 194.631 219.915C194.336 220.078 193.943 220.159 193.453 220.159ZM193.612 219.105C194.082 219.105 194.48 218.982 194.805 218.737C195.13 218.489 195.377 218.146 195.546 217.708C195.715 217.267 195.799 216.759 195.799 216.182C195.799 215.612 195.716 215.113 195.551 214.685C195.385 214.254 195.14 213.92 194.815 213.681C194.49 213.439 194.089 213.318 193.612 213.318C193.114 213.318 192.7 213.446 192.369 213.701C192.041 213.953 191.794 214.296 191.628 214.73C191.466 215.161 191.384 215.645 191.384 216.182C191.384 216.725 191.467 217.219 191.633 217.663C191.802 218.104 192.051 218.455 192.379 218.717C192.71 218.976 193.121 219.105 193.612 219.105ZM204.673 214.074L203.619 214.372C203.553 214.196 203.455 214.026 203.326 213.86C203.2 213.691 203.028 213.552 202.809 213.442C202.59 213.333 202.31 213.278 201.969 213.278C201.502 213.278 201.112 213.386 200.801 213.602C200.492 213.814 200.338 214.084 200.338 214.412C200.338 214.704 200.444 214.934 200.656 215.103C200.868 215.272 201.2 215.413 201.651 215.526L202.784 215.804C203.467 215.97 203.976 216.223 204.31 216.565C204.645 216.903 204.813 217.339 204.813 217.872C204.813 218.31 204.687 218.701 204.435 219.045C204.186 219.39 203.838 219.662 203.391 219.861C202.943 220.06 202.423 220.159 201.83 220.159C201.051 220.159 200.406 219.99 199.896 219.652C199.385 219.314 199.062 218.82 198.926 218.17L200.04 217.892C200.146 218.303 200.346 218.611 200.641 218.817C200.94 219.022 201.329 219.125 201.81 219.125C202.357 219.125 202.791 219.009 203.112 218.777C203.437 218.542 203.6 218.26 203.6 217.932C203.6 217.667 203.507 217.445 203.321 217.266C203.136 217.083 202.85 216.947 202.466 216.858L201.193 216.56C200.494 216.394 199.98 216.137 199.652 215.789C199.327 215.438 199.165 214.999 199.165 214.472C199.165 214.041 199.286 213.66 199.528 213.328C199.773 212.997 200.106 212.737 200.527 212.548C200.951 212.359 201.432 212.264 201.969 212.264C202.725 212.264 203.318 212.43 203.749 212.761C204.183 213.093 204.491 213.53 204.673 214.074ZM207.434 220.08C207.189 220.08 206.978 219.992 206.802 219.816C206.627 219.64 206.539 219.43 206.539 219.185C206.539 218.939 206.627 218.729 206.802 218.553C206.978 218.378 207.189 218.29 207.434 218.29C207.679 218.29 207.89 218.378 208.065 218.553C208.241 218.729 208.329 218.939 208.329 219.185C208.329 219.347 208.287 219.496 208.204 219.632C208.125 219.768 208.017 219.877 207.881 219.96C207.749 220.04 207.6 220.08 207.434 220.08ZM213.656 209.818H215.068L217.892 214.571H218.011L220.835 209.818H222.247L218.568 215.804V220H217.335V215.804L213.656 209.818ZM225.704 220.159C225.015 220.159 224.41 219.995 223.89 219.667C223.373 219.339 222.968 218.88 222.677 218.29C222.388 217.7 222.244 217.01 222.244 216.222C222.244 215.426 222.388 214.732 222.677 214.138C222.968 213.545 223.373 213.085 223.89 212.756C224.41 212.428 225.015 212.264 225.704 212.264C226.394 212.264 226.997 212.428 227.514 212.756C228.034 213.085 228.439 213.545 228.727 214.138C229.019 214.732 229.165 215.426 229.165 216.222C229.165 217.01 229.019 217.7 228.727 218.29C228.439 218.88 228.034 219.339 227.514 219.667C226.997 219.995 226.394 220.159 225.704 220.159ZM225.704 219.105C226.228 219.105 226.659 218.971 226.997 218.702C227.335 218.434 227.585 218.081 227.748 217.643C227.91 217.206 227.991 216.732 227.991 216.222C227.991 215.711 227.91 215.236 227.748 214.795C227.585 214.354 227.335 213.998 226.997 213.726C226.659 213.454 226.228 213.318 225.704 213.318C225.181 213.318 224.75 213.454 224.412 213.726C224.074 213.998 223.824 214.354 223.661 214.795C223.499 215.236 223.418 215.711 223.418 216.222C223.418 216.732 223.499 217.206 223.661 217.643C223.824 218.081 224.074 218.434 224.412 218.702C224.75 218.971 225.181 219.105 225.704 219.105ZM235.768 216.878V212.364H236.941V220H235.768V218.707H235.689C235.51 219.095 235.231 219.425 234.853 219.697C234.476 219.965 233.998 220.099 233.422 220.099C232.944 220.099 232.52 219.995 232.149 219.786C231.778 219.574 231.486 219.256 231.274 218.832C231.062 218.404 230.956 217.866 230.956 217.216V212.364H232.129V217.136C232.129 217.693 232.285 218.137 232.596 218.469C232.911 218.8 233.312 218.966 233.799 218.966C234.091 218.966 234.388 218.891 234.689 218.742C234.994 218.593 235.249 218.364 235.455 218.056C235.664 217.748 235.768 217.355 235.768 216.878ZM245.911 220.159C245.275 220.159 244.713 219.998 244.226 219.677C243.739 219.352 243.358 218.895 243.083 218.305C242.808 217.711 242.67 217.01 242.67 216.202C242.67 215.4 242.808 214.704 243.083 214.114C243.358 213.524 243.741 213.068 244.231 212.746C244.722 212.425 245.288 212.264 245.931 212.264C246.429 212.264 246.821 212.347 247.11 212.513C247.401 212.675 247.623 212.861 247.776 213.07C247.932 213.275 248.053 213.444 248.139 213.577H248.238V209.818H249.411V220H248.278V218.827H248.139C248.053 218.966 247.93 219.142 247.771 219.354C247.612 219.562 247.385 219.75 247.09 219.915C246.795 220.078 246.402 220.159 245.911 220.159ZM246.071 219.105C246.541 219.105 246.939 218.982 247.264 218.737C247.589 218.489 247.835 218.146 248.005 217.708C248.174 217.267 248.258 216.759 248.258 216.182C248.258 215.612 248.175 215.113 248.009 214.685C247.844 214.254 247.599 213.92 247.274 213.681C246.949 213.439 246.548 213.318 246.071 213.318C245.573 213.318 245.159 213.446 244.828 213.701C244.5 213.953 244.253 214.296 244.087 214.73C243.925 215.161 243.843 215.645 243.843 216.182C243.843 216.725 243.926 217.219 244.092 217.663C244.261 218.104 244.509 218.455 244.838 218.717C245.169 218.976 245.58 219.105 246.071 219.105ZM254.826 220.159C254.136 220.159 253.531 219.995 253.011 219.667C252.494 219.339 252.09 218.88 251.798 218.29C251.509 217.7 251.365 217.01 251.365 216.222C251.365 215.426 251.509 214.732 251.798 214.138C252.09 213.545 252.494 213.085 253.011 212.756C253.531 212.428 254.136 212.264 254.826 212.264C255.515 212.264 256.118 212.428 256.635 212.756C257.156 213.085 257.56 213.545 257.848 214.138C258.14 214.732 258.286 215.426 258.286 216.222C258.286 217.01 258.14 217.7 257.848 218.29C257.56 218.88 257.156 219.339 256.635 219.667C256.118 219.995 255.515 220.159 254.826 220.159ZM254.826 219.105C255.349 219.105 255.78 218.971 256.118 218.702C256.456 218.434 256.706 218.081 256.869 217.643C257.031 217.206 257.112 216.732 257.112 216.222C257.112 215.711 257.031 215.236 256.869 214.795C256.706 214.354 256.456 213.998 256.118 213.726C255.78 213.454 255.349 213.318 254.826 213.318C254.302 213.318 253.871 213.454 253.533 213.726C253.195 213.998 252.945 214.354 252.782 214.795C252.62 215.236 252.539 215.711 252.539 216.222C252.539 216.732 252.62 217.206 252.782 217.643C252.945 218.081 253.195 218.434 253.533 218.702C253.871 218.971 254.302 219.105 254.826 219.105ZM261.25 215.406V220H260.077V212.364H261.21V213.557H261.31C261.489 213.169 261.761 212.857 262.125 212.622C262.49 212.384 262.96 212.264 263.537 212.264C264.054 212.264 264.506 212.37 264.894 212.582C265.282 212.791 265.584 213.109 265.799 213.537C266.015 213.961 266.122 214.498 266.122 215.148V220H264.949V215.227C264.949 214.627 264.793 214.16 264.482 213.825C264.17 213.487 263.743 213.318 263.199 213.318C262.824 213.318 262.49 213.399 262.195 213.562C261.903 213.724 261.673 213.961 261.504 214.273C261.335 214.584 261.25 214.962 261.25 215.406ZM271.587 212.364V213.358H267.63V212.364H271.587ZM268.783 210.534H269.957V217.812C269.957 218.144 270.005 218.393 270.101 218.558C270.2 218.721 270.326 218.83 270.479 218.886C270.634 218.939 270.798 218.966 270.971 218.966C271.1 218.966 271.206 218.959 271.289 218.946C271.372 218.929 271.438 218.916 271.488 218.906L271.726 219.96C271.647 219.99 271.536 220.02 271.393 220.05C271.251 220.083 271.07 220.099 270.851 220.099C270.52 220.099 270.195 220.028 269.877 219.886C269.562 219.743 269.3 219.526 269.092 219.234C268.886 218.943 268.783 218.575 268.783 218.131V210.534ZM278.463 215.406V220H277.29V209.818H278.463V213.557H278.562C278.741 213.162 279.01 212.849 279.368 212.617C279.729 212.382 280.21 212.264 280.81 212.264C281.33 212.264 281.786 212.369 282.177 212.577C282.568 212.783 282.871 213.099 283.087 213.527C283.305 213.951 283.415 214.491 283.415 215.148V220H282.241V215.227C282.241 214.621 282.084 214.152 281.769 213.82C281.458 213.486 281.025 213.318 280.472 213.318C280.087 213.318 279.742 213.399 279.437 213.562C279.136 213.724 278.897 213.961 278.722 214.273C278.549 214.584 278.463 214.962 278.463 215.406ZM287.808 220.179C287.324 220.179 286.885 220.088 286.491 219.906C286.096 219.72 285.783 219.453 285.551 219.105C285.319 218.754 285.203 218.33 285.203 217.832C285.203 217.395 285.289 217.04 285.462 216.768C285.634 216.493 285.864 216.278 286.153 216.122C286.441 215.966 286.759 215.85 287.107 215.774C287.459 215.695 287.812 215.632 288.166 215.585C288.63 215.526 289.006 215.481 289.295 215.451C289.587 215.418 289.799 215.363 289.931 215.287C290.067 215.211 290.135 215.078 290.135 214.889V214.849C290.135 214.359 290.001 213.978 289.732 213.706C289.467 213.434 289.064 213.298 288.524 213.298C287.964 213.298 287.525 213.421 287.207 213.666C286.889 213.911 286.665 214.173 286.536 214.452L285.422 214.054C285.621 213.59 285.886 213.229 286.217 212.97C286.552 212.708 286.917 212.526 287.311 212.423C287.709 212.317 288.1 212.264 288.484 212.264C288.73 212.264 289.011 212.294 289.33 212.354C289.651 212.41 289.961 212.528 290.259 212.707C290.561 212.886 290.811 213.156 291.01 213.517C291.209 213.878 291.308 214.362 291.308 214.969V220H290.135V218.966H290.075C289.996 219.132 289.863 219.309 289.678 219.498C289.492 219.687 289.245 219.848 288.937 219.98C288.629 220.113 288.252 220.179 287.808 220.179ZM287.987 219.125C288.451 219.125 288.842 219.034 289.161 218.852C289.482 218.669 289.724 218.434 289.886 218.146C290.052 217.857 290.135 217.554 290.135 217.236V216.162C290.085 216.222 289.976 216.276 289.807 216.326C289.641 216.372 289.449 216.414 289.23 216.45C289.015 216.483 288.804 216.513 288.599 216.54C288.397 216.563 288.233 216.583 288.107 216.599C287.802 216.639 287.517 216.704 287.252 216.793C286.99 216.879 286.778 217.01 286.615 217.186C286.456 217.358 286.377 217.594 286.377 217.892C286.377 218.3 286.527 218.608 286.829 218.817C287.134 219.022 287.52 219.125 287.987 219.125ZM299.421 212.364L296.597 220H295.404L292.58 212.364H293.853L295.96 218.449H296.04L298.148 212.364H299.421ZM303.898 220.159C303.162 220.159 302.527 219.997 301.994 219.672C301.463 219.344 301.054 218.886 300.766 218.3C300.48 217.71 300.338 217.024 300.338 216.241C300.338 215.459 300.48 214.77 300.766 214.173C301.054 213.573 301.455 213.106 301.969 212.771C302.486 212.433 303.089 212.264 303.778 212.264C304.176 212.264 304.569 212.33 304.957 212.463C305.344 212.596 305.697 212.811 306.016 213.109C306.334 213.404 306.587 213.795 306.776 214.283C306.965 214.77 307.06 215.37 307.06 216.082V216.58H301.173V215.565H305.866C305.866 215.134 305.78 214.75 305.608 214.412C305.439 214.074 305.197 213.807 304.882 213.612C304.57 213.416 304.203 213.318 303.778 213.318C303.311 213.318 302.907 213.434 302.565 213.666C302.227 213.895 301.967 214.193 301.785 214.561C301.602 214.929 301.511 215.323 301.511 215.744V216.42C301.511 216.997 301.611 217.486 301.81 217.887C302.012 218.285 302.292 218.588 302.65 218.797C303.008 219.002 303.424 219.105 303.898 219.105C304.206 219.105 304.484 219.062 304.733 218.976C304.985 218.886 305.202 218.754 305.384 218.578C305.566 218.399 305.707 218.177 305.807 217.912L306.94 218.23C306.821 218.615 306.62 218.953 306.339 219.244C306.057 219.533 305.709 219.758 305.295 219.92C304.88 220.08 304.415 220.159 303.898 220.159ZM316.103 212.364V213.358H312.146V212.364H316.103ZM313.299 210.534H314.472V217.812C314.472 218.144 314.52 218.393 314.616 218.558C314.716 218.721 314.842 218.83 314.994 218.886C315.15 218.939 315.314 218.966 315.486 218.966C315.616 218.966 315.722 218.959 315.805 218.946C315.887 218.929 315.954 218.916 316.003 218.906L316.242 219.96C316.163 219.99 316.052 220.02 315.909 220.05C315.766 220.083 315.586 220.099 315.367 220.099C315.036 220.099 314.711 220.028 314.393 219.886C314.078 219.743 313.816 219.526 313.607 219.234C313.402 218.943 313.299 218.575 313.299 218.131V210.534ZM320.888 220.159C320.199 220.159 319.594 219.995 319.073 219.667C318.556 219.339 318.152 218.88 317.86 218.29C317.572 217.7 317.428 217.01 317.428 216.222C317.428 215.426 317.572 214.732 317.86 214.138C318.152 213.545 318.556 213.085 319.073 212.756C319.594 212.428 320.199 212.264 320.888 212.264C321.577 212.264 322.181 212.428 322.698 212.756C323.218 213.085 323.622 213.545 323.911 214.138C324.202 214.732 324.348 215.426 324.348 216.222C324.348 217.01 324.202 217.7 323.911 218.29C323.622 218.88 323.218 219.339 322.698 219.667C322.181 219.995 321.577 220.159 320.888 220.159ZM320.888 219.105C321.412 219.105 321.843 218.971 322.181 218.702C322.519 218.434 322.769 218.081 322.931 217.643C323.094 217.206 323.175 216.732 323.175 216.222C323.175 215.711 323.094 215.236 322.931 214.795C322.769 214.354 322.519 213.998 322.181 213.726C321.843 213.454 321.412 213.318 320.888 213.318C320.364 213.318 319.934 213.454 319.595 213.726C319.257 213.998 319.007 214.354 318.845 214.795C318.682 215.236 318.601 215.711 318.601 216.222C318.601 216.732 318.682 217.206 318.845 217.643C319.007 218.081 319.257 218.434 319.595 218.702C319.934 218.971 320.364 219.105 320.888 219.105ZM327.889 218.608L327.81 219.145C327.753 219.523 327.667 219.927 327.551 220.358C327.439 220.789 327.321 221.195 327.198 221.576C327.076 221.957 326.975 222.26 326.895 222.486H326C326.043 222.274 326.1 221.994 326.169 221.646C326.239 221.298 326.308 220.908 326.378 220.477C326.451 220.05 326.511 219.612 326.557 219.165L326.617 218.608H327.889ZM337.322 212.364V213.358H333.364V212.364H337.322ZM334.518 210.534H335.691V217.812C335.691 218.144 335.739 218.393 335.835 218.558C335.935 218.721 336.061 218.83 336.213 218.886C336.369 218.939 336.533 218.966 336.705 218.966C336.834 218.966 336.94 218.959 337.023 218.946C337.106 218.929 337.172 218.916 337.222 218.906L337.461 219.96C337.381 219.99 337.27 220.02 337.128 220.05C336.985 220.083 336.805 220.099 336.586 220.099C336.254 220.099 335.93 220.028 335.611 219.886C335.297 219.743 335.035 219.526 334.826 219.234C334.62 218.943 334.518 218.575 334.518 218.131V210.534ZM340.424 215.406V220H339.251V209.818H340.424V213.557H340.523C340.702 213.162 340.971 212.849 341.329 212.617C341.69 212.382 342.171 212.264 342.771 212.264C343.291 212.264 343.747 212.369 344.138 212.577C344.529 212.783 344.832 213.099 345.047 213.527C345.266 213.951 345.376 214.491 345.376 215.148V220H344.202V215.227C344.202 214.621 344.045 214.152 343.73 213.82C343.418 213.486 342.986 213.318 342.432 213.318C342.048 213.318 341.703 213.399 341.398 213.562C341.097 213.724 340.858 213.961 340.682 214.273C340.51 214.584 340.424 214.962 340.424 215.406ZM350.624 220.159C349.935 220.159 349.33 219.995 348.81 219.667C348.293 219.339 347.888 218.88 347.597 218.29C347.308 217.7 347.164 217.01 347.164 216.222C347.164 215.426 347.308 214.732 347.597 214.138C347.888 213.545 348.293 213.085 348.81 212.756C349.33 212.428 349.935 212.264 350.624 212.264C351.314 212.264 351.917 212.428 352.434 212.756C352.954 213.085 353.359 213.545 353.647 214.138C353.939 214.732 354.085 215.426 354.085 216.222C354.085 217.01 353.939 217.7 353.647 218.29C353.359 218.88 352.954 219.339 352.434 219.667C351.917 219.995 351.314 220.159 350.624 220.159ZM350.624 219.105C351.148 219.105 351.579 218.971 351.917 218.702C352.255 218.434 352.505 218.081 352.668 217.643C352.83 217.206 352.911 216.732 352.911 216.222C352.911 215.711 352.83 215.236 352.668 214.795C352.505 214.354 352.255 213.998 351.917 213.726C351.579 213.454 351.148 213.318 350.624 213.318C350.101 213.318 349.67 213.454 349.332 213.726C348.994 213.998 348.743 214.354 348.581 214.795C348.419 215.236 348.337 215.711 348.337 216.222C348.337 216.732 348.419 217.206 348.581 217.643C348.743 218.081 348.994 218.434 349.332 218.702C349.67 218.971 350.101 219.105 350.624 219.105ZM360.688 216.878V212.364H361.861V220H360.688V218.707H360.609C360.43 219.095 360.151 219.425 359.773 219.697C359.396 219.965 358.918 220.099 358.342 220.099C357.864 220.099 357.44 219.995 357.069 219.786C356.698 219.574 356.406 219.256 356.194 218.832C355.982 218.404 355.876 217.866 355.876 217.216V212.364H357.049V217.136C357.049 217.693 357.205 218.137 357.516 218.469C357.831 218.8 358.232 218.966 358.719 218.966C359.011 218.966 359.308 218.891 359.609 218.742C359.914 218.593 360.169 218.364 360.375 218.056C360.584 217.748 360.688 217.355 360.688 216.878ZM367.093 223.023C366.526 223.023 366.039 222.95 365.631 222.804C365.223 222.661 364.884 222.473 364.612 222.237C364.343 222.005 364.13 221.757 363.971 221.491L364.905 220.835C365.011 220.974 365.146 221.134 365.308 221.312C365.47 221.495 365.692 221.652 365.974 221.785C366.259 221.921 366.632 221.989 367.093 221.989C367.709 221.989 368.218 221.839 368.619 221.541C369.02 221.243 369.221 220.776 369.221 220.139V218.588H369.121C369.035 218.727 368.912 218.9 368.753 219.105C368.598 219.307 368.372 219.488 368.077 219.647C367.785 219.803 367.391 219.881 366.894 219.881C366.277 219.881 365.724 219.735 365.233 219.443C364.746 219.152 364.36 218.727 364.075 218.17C363.793 217.614 363.652 216.937 363.652 216.142C363.652 215.36 363.79 214.679 364.065 214.099C364.34 213.515 364.723 213.065 365.214 212.746C365.704 212.425 366.271 212.264 366.914 212.264C367.411 212.264 367.805 212.347 368.097 212.513C368.392 212.675 368.617 212.861 368.773 213.07C368.932 213.275 369.055 213.444 369.141 213.577H369.26V212.364H370.394V220.219C370.394 220.875 370.245 221.409 369.946 221.82C369.651 222.234 369.254 222.537 368.753 222.729C368.256 222.925 367.703 223.023 367.093 223.023ZM367.053 218.827C367.524 218.827 367.921 218.719 368.246 218.504C368.571 218.288 368.818 217.978 368.987 217.574C369.156 217.17 369.241 216.686 369.241 216.122C369.241 215.572 369.158 215.086 368.992 214.665C368.826 214.245 368.581 213.915 368.256 213.676C367.931 213.437 367.53 213.318 367.053 213.318C366.556 213.318 366.142 213.444 365.81 213.696C365.482 213.948 365.235 214.286 365.069 214.71C364.907 215.134 364.826 215.605 364.826 216.122C364.826 216.652 364.909 217.121 365.074 217.529C365.243 217.933 365.492 218.252 365.82 218.484C366.151 218.712 366.562 218.827 367.053 218.827ZM373.715 215.406V220H372.542V209.818H373.715V213.557H373.814C373.993 213.162 374.262 212.849 374.62 212.617C374.981 212.382 375.462 212.264 376.062 212.264C376.582 212.264 377.038 212.369 377.429 212.577C377.82 212.783 378.123 213.099 378.339 213.527C378.557 213.951 378.667 214.491 378.667 215.148V220H377.493V215.227C377.493 214.621 377.336 214.152 377.021 213.82C376.709 213.486 376.277 213.318 375.723 213.318C375.339 213.318 374.994 213.399 374.689 213.562C374.388 213.724 374.149 213.961 373.973 214.273C373.801 214.584 373.715 214.962 373.715 215.406ZM382.364 209.818L382.265 217.136H381.111L381.012 209.818H382.364ZM381.688 220.08C381.443 220.08 381.232 219.992 381.057 219.816C380.881 219.64 380.793 219.43 380.793 219.185C380.793 218.939 380.881 218.729 381.057 218.553C381.232 218.378 381.443 218.29 381.688 218.29C381.933 218.29 382.144 218.378 382.32 218.553C382.495 218.729 382.583 218.939 382.583 219.185C382.583 219.347 382.542 219.496 382.459 219.632C382.379 219.768 382.271 219.877 382.136 219.96C382.003 220.04 381.854 220.08 381.688 220.08Z" fill="#9C9FA3"/>
</svg>
